<mxfile host="app.diagrams.net" modified="2023-03-07T15:38:26.013Z" agent="5.0 (Windows NT 10.0; Win64; x64) AppleWebKit/537.36 (KHTML, like Gecko) Chrome/110.0.0.0 Safari/537.36 Edg/110.0.1587.63" etag="4Jez7eBTZHRbngRKD7v6" version="21.0.2" type="github">
  <diagram name="第 1 页" id="VTZKAf1ltyL4esYXZAsg">
    <mxGraphModel dx="913" dy="1667" grid="1" gridSize="10" guides="1" tooltips="1" connect="1" arrows="1" fold="1" page="1" pageScale="1" pageWidth="827" pageHeight="1169" math="0" shadow="0">
      <root>
        <mxCell id="0" />
        <mxCell id="1" parent="0" />
        <mxCell id="wX_MCLOSpyru5hPgQ0eP-4" value="" style="edgeStyle=orthogonalEdgeStyle;rounded=0;orthogonalLoop=1;jettySize=auto;html=1;" edge="1" parent="1" target="wX_MCLOSpyru5hPgQ0eP-3">
          <mxGeometry relative="1" as="geometry">
            <mxPoint x="260" y="105" as="sourcePoint" />
          </mxGeometry>
        </mxCell>
        <mxCell id="wX_MCLOSpyru5hPgQ0eP-11" style="edgeStyle=orthogonalEdgeStyle;rounded=0;orthogonalLoop=1;jettySize=auto;html=1;entryX=0.5;entryY=0;entryDx=0;entryDy=0;" edge="1" parent="1" target="wX_MCLOSpyru5hPgQ0eP-10">
          <mxGeometry relative="1" as="geometry">
            <mxPoint x="320" y="140" as="sourcePoint" />
          </mxGeometry>
        </mxCell>
        <mxCell id="wX_MCLOSpyru5hPgQ0eP-22" style="edgeStyle=orthogonalEdgeStyle;rounded=0;orthogonalLoop=1;jettySize=auto;html=1;exitX=0.5;exitY=1;exitDx=0;exitDy=0;entryX=0;entryY=0.5;entryDx=0;entryDy=0;dashed=1;" edge="1" parent="1" target="wX_MCLOSpyru5hPgQ0eP-10">
          <mxGeometry relative="1" as="geometry">
            <mxPoint x="127.5" y="115" as="sourcePoint" />
          </mxGeometry>
        </mxCell>
        <mxCell id="wX_MCLOSpyru5hPgQ0eP-75" value="&lt;b style=&quot;border-color: var(--border-color);&quot;&gt;&lt;font style=&quot;border-color: var(--border-color); font-size: 19px;&quot;&gt;主要数据处理流程&lt;/font&gt;&lt;/b&gt;" style="swimlane;whiteSpace=wrap;html=1;" vertex="1" parent="1">
          <mxGeometry x="10" y="-470" width="940" height="1130" as="geometry">
            <mxRectangle x="10" y="-470" width="190" height="40" as="alternateBounds" />
          </mxGeometry>
        </mxCell>
        <mxCell id="wX_MCLOSpyru5hPgQ0eP-62" value="初步注释流程" style="swimlane;whiteSpace=wrap;html=1;" vertex="1" parent="wX_MCLOSpyru5hPgQ0eP-75">
          <mxGeometry x="351.25" y="480" width="583.75" height="650" as="geometry">
            <mxRectangle x="351.25" y="480" width="110" height="30" as="alternateBounds" />
          </mxGeometry>
        </mxCell>
        <mxCell id="wX_MCLOSpyru5hPgQ0eP-63" value="超种构建" style="swimlane;whiteSpace=wrap;html=1;" vertex="1" parent="wX_MCLOSpyru5hPgQ0eP-62">
          <mxGeometry x="9.75" y="30" width="530" height="160" as="geometry">
            <mxRectangle x="53.75" y="40" width="90" height="30" as="alternateBounds" />
          </mxGeometry>
        </mxCell>
        <mxCell id="wX_MCLOSpyru5hPgQ0eP-84" style="edgeStyle=orthogonalEdgeStyle;rounded=0;orthogonalLoop=1;jettySize=auto;html=1;exitX=0.5;exitY=1;exitDx=0;exitDy=0;entryX=0.5;entryY=0;entryDx=0;entryDy=0;" edge="1" parent="wX_MCLOSpyru5hPgQ0eP-63" source="wX_MCLOSpyru5hPgQ0eP-43" target="wX_MCLOSpyru5hPgQ0eP-82">
          <mxGeometry relative="1" as="geometry" />
        </mxCell>
        <mxCell id="wX_MCLOSpyru5hPgQ0eP-43" value="将16s序列按属水平进行分类" style="text;html=1;strokeColor=none;fillColor=none;align=center;verticalAlign=middle;whiteSpace=wrap;rounded=0;" vertex="1" parent="wX_MCLOSpyru5hPgQ0eP-63">
          <mxGeometry x="9" y="30" width="160" height="30" as="geometry" />
        </mxCell>
        <mxCell id="wX_MCLOSpyru5hPgQ0eP-82" value="属X16S序列" style="rounded=0;whiteSpace=wrap;html=1;" vertex="1" parent="wX_MCLOSpyru5hPgQ0eP-63">
          <mxGeometry x="29" y="80" width="120" height="20" as="geometry" />
        </mxCell>
        <mxCell id="wX_MCLOSpyru5hPgQ0eP-85" value="CD-HIT&lt;br&gt;多序列比对聚类" style="rounded=0;whiteSpace=wrap;html=1;" vertex="1" parent="wX_MCLOSpyru5hPgQ0eP-63">
          <mxGeometry x="189" y="75" width="120" height="30" as="geometry" />
        </mxCell>
        <mxCell id="wX_MCLOSpyru5hPgQ0eP-69" value="mock数据处理" style="swimlane;whiteSpace=wrap;html=1;" vertex="1" parent="wX_MCLOSpyru5hPgQ0eP-62">
          <mxGeometry x="20" y="210" width="210" height="180" as="geometry" />
        </mxCell>
        <mxCell id="wX_MCLOSpyru5hPgQ0eP-70" value="物种注释" style="swimlane;whiteSpace=wrap;html=1;" vertex="1" parent="wX_MCLOSpyru5hPgQ0eP-62">
          <mxGeometry x="25" y="400" width="200" height="200" as="geometry" />
        </mxCell>
        <mxCell id="wX_MCLOSpyru5hPgQ0eP-77" style="edgeStyle=orthogonalEdgeStyle;rounded=0;orthogonalLoop=1;jettySize=auto;html=1;exitX=0.5;exitY=1;exitDx=0;exitDy=0;entryX=0.5;entryY=0;entryDx=0;entryDy=0;" edge="1" parent="wX_MCLOSpyru5hPgQ0eP-75" source="wX_MCLOSpyru5hPgQ0eP-44" target="wX_MCLOSpyru5hPgQ0eP-17">
          <mxGeometry relative="1" as="geometry">
            <Array as="points">
              <mxPoint x="241" y="250" />
              <mxPoint x="241" y="290" />
              <mxPoint x="130" y="290" />
            </Array>
          </mxGeometry>
        </mxCell>
        <mxCell id="wX_MCLOSpyru5hPgQ0eP-78" style="edgeStyle=orthogonalEdgeStyle;rounded=0;orthogonalLoop=1;jettySize=auto;html=1;exitX=0.5;exitY=1;exitDx=0;exitDy=0;" edge="1" parent="wX_MCLOSpyru5hPgQ0eP-75" source="wX_MCLOSpyru5hPgQ0eP-44" target="wX_MCLOSpyru5hPgQ0eP-24">
          <mxGeometry relative="1" as="geometry">
            <Array as="points">
              <mxPoint x="241" y="250" />
              <mxPoint x="241" y="290" />
              <mxPoint x="450" y="290" />
            </Array>
          </mxGeometry>
        </mxCell>
        <mxCell id="wX_MCLOSpyru5hPgQ0eP-44" value="从NCBI下载基因组" style="swimlane;whiteSpace=wrap;html=1;" vertex="1" parent="wX_MCLOSpyru5hPgQ0eP-75">
          <mxGeometry x="170" y="50" width="342.5" height="200" as="geometry">
            <mxRectangle x="170" y="50" width="140" height="30" as="alternateBounds" />
          </mxGeometry>
        </mxCell>
        <mxCell id="wX_MCLOSpyru5hPgQ0eP-55" style="edgeStyle=orthogonalEdgeStyle;rounded=0;orthogonalLoop=1;jettySize=auto;html=1;" edge="1" parent="wX_MCLOSpyru5hPgQ0eP-44" source="wX_MCLOSpyru5hPgQ0eP-51" target="wX_MCLOSpyru5hPgQ0eP-52">
          <mxGeometry relative="1" as="geometry" />
        </mxCell>
        <mxCell id="wX_MCLOSpyru5hPgQ0eP-73" style="edgeStyle=orthogonalEdgeStyle;rounded=0;orthogonalLoop=1;jettySize=auto;html=1;entryX=1;entryY=0.5;entryDx=0;entryDy=0;" edge="1" parent="wX_MCLOSpyru5hPgQ0eP-44" source="wX_MCLOSpyru5hPgQ0eP-51" target="wX_MCLOSpyru5hPgQ0eP-53">
          <mxGeometry relative="1" as="geometry">
            <Array as="points">
              <mxPoint x="278" y="180" />
            </Array>
          </mxGeometry>
        </mxCell>
        <mxCell id="wX_MCLOSpyru5hPgQ0eP-51" value="NCBI-Refseq&lt;br&gt;Database" style="ellipse;shape=cloud;whiteSpace=wrap;html=1;" vertex="1" parent="wX_MCLOSpyru5hPgQ0eP-44">
          <mxGeometry x="217.5" y="57.5" width="120" height="75" as="geometry" />
        </mxCell>
        <mxCell id="wX_MCLOSpyru5hPgQ0eP-71" style="edgeStyle=orthogonalEdgeStyle;rounded=0;orthogonalLoop=1;jettySize=auto;html=1;exitX=0.5;exitY=1;exitDx=0;exitDy=0;entryX=0.5;entryY=0;entryDx=0;entryDy=0;dashed=1;dashPattern=8 8;" edge="1" parent="wX_MCLOSpyru5hPgQ0eP-44" source="wX_MCLOSpyru5hPgQ0eP-52" target="wX_MCLOSpyru5hPgQ0eP-53">
          <mxGeometry relative="1" as="geometry">
            <Array as="points">
              <mxPoint x="75" y="105" />
            </Array>
          </mxGeometry>
        </mxCell>
        <mxCell id="wX_MCLOSpyru5hPgQ0eP-52" value="assembly_summary_refseq" style="rounded=0;whiteSpace=wrap;html=1;" vertex="1" parent="wX_MCLOSpyru5hPgQ0eP-44">
          <mxGeometry x="15" y="85" width="160" height="20" as="geometry" />
        </mxCell>
        <mxCell id="wX_MCLOSpyru5hPgQ0eP-53" value="基因组序列" style="rounded=0;whiteSpace=wrap;html=1;" vertex="1" parent="wX_MCLOSpyru5hPgQ0eP-44">
          <mxGeometry x="15" y="170" width="120" height="20" as="geometry" />
        </mxCell>
        <mxCell id="wX_MCLOSpyru5hPgQ0eP-8" value="该文件为索引文件&lt;br&gt;从该文件中获取对应基因组和蛋白组（未使用）路径完成下载" style="text;html=1;strokeColor=none;fillColor=none;align=center;verticalAlign=middle;whiteSpace=wrap;rounded=0;" vertex="1" parent="wX_MCLOSpyru5hPgQ0eP-44">
          <mxGeometry x="5" y="35" width="180" height="50" as="geometry" />
        </mxCell>
        <mxCell id="wX_MCLOSpyru5hPgQ0eP-17" value="蛋白marker序列" style="rounded=0;whiteSpace=wrap;html=1;" vertex="1" parent="wX_MCLOSpyru5hPgQ0eP-75">
          <mxGeometry x="70" y="350" width="120" height="20" as="geometry" />
        </mxCell>
        <mxCell id="wX_MCLOSpyru5hPgQ0eP-24" value="可能的RNA序列" style="rounded=0;whiteSpace=wrap;html=1;" vertex="1" parent="wX_MCLOSpyru5hPgQ0eP-75">
          <mxGeometry x="390" y="375" width="120" height="20" as="geometry" />
        </mxCell>
        <mxCell id="wX_MCLOSpyru5hPgQ0eP-83" style="edgeStyle=orthogonalEdgeStyle;rounded=0;orthogonalLoop=1;jettySize=auto;html=1;exitX=0.5;exitY=1;exitDx=0;exitDy=0;entryX=0.5;entryY=0;entryDx=0;entryDy=0;" edge="1" parent="wX_MCLOSpyru5hPgQ0eP-75" source="wX_MCLOSpyru5hPgQ0eP-16" target="wX_MCLOSpyru5hPgQ0eP-43">
          <mxGeometry relative="1" as="geometry" />
        </mxCell>
        <mxCell id="wX_MCLOSpyru5hPgQ0eP-16" value="16sRNA序列" style="rounded=0;whiteSpace=wrap;html=1;" vertex="1" parent="wX_MCLOSpyru5hPgQ0eP-75">
          <mxGeometry x="390" y="425" width="120" height="20" as="geometry" />
        </mxCell>
        <mxCell id="wX_MCLOSpyru5hPgQ0eP-27" style="edgeStyle=orthogonalEdgeStyle;rounded=0;orthogonalLoop=1;jettySize=auto;html=1;exitX=0.5;exitY=1;exitDx=0;exitDy=0;entryX=0.5;entryY=0;entryDx=0;entryDy=0;" edge="1" parent="wX_MCLOSpyru5hPgQ0eP-75" source="wX_MCLOSpyru5hPgQ0eP-24" target="wX_MCLOSpyru5hPgQ0eP-16">
          <mxGeometry relative="1" as="geometry" />
        </mxCell>
        <mxCell id="wX_MCLOSpyru5hPgQ0eP-23" value="barrnap工具提取rna片段" style="text;html=1;strokeColor=none;fillColor=none;align=center;verticalAlign=middle;whiteSpace=wrap;rounded=0;" vertex="1" parent="wX_MCLOSpyru5hPgQ0eP-75">
          <mxGeometry x="290" y="260" width="160" height="30" as="geometry" />
        </mxCell>
        <mxCell id="wX_MCLOSpyru5hPgQ0eP-28" value="注：部分基因组可能未提取出16s序列" style="text;html=1;strokeColor=none;fillColor=none;align=center;verticalAlign=middle;whiteSpace=wrap;rounded=0;" vertex="1" parent="wX_MCLOSpyru5hPgQ0eP-75">
          <mxGeometry x="522.5" y="370" width="207.5" height="30" as="geometry" />
        </mxCell>
        <mxCell id="wX_MCLOSpyru5hPgQ0eP-29" value="注：同一基因组可能出现多条16s序列，&lt;br&gt;实际操作中全部纳入数据集" style="text;html=1;strokeColor=none;fillColor=none;align=center;verticalAlign=middle;whiteSpace=wrap;rounded=0;" vertex="1" parent="wX_MCLOSpyru5hPgQ0eP-75">
          <mxGeometry x="516.25" y="415" width="220" height="30" as="geometry" />
        </mxCell>
      </root>
    </mxGraphModel>
  </diagram>
</mxfile>
